<svg xmlns="http://www.w3.org/2000/svg" viewBox="0 0 150.53 47.52"><defs><style>.cls-1{fill:#fff;fill-rule:evenodd;}</style></defs><title>Logo_Atas</title><g id="Layer_2" data-name="Layer 2"><g id="Design"><path class="cls-1" d="M7.73,45.57C38.68,54.2,60.93,1.3,107,8.41,66,5.72,52.08,58.16,7.73,45.57"/><path class="cls-1" d="M63,18c-5.78,3.5-17.35,11.09-31,.8,2.61,6.88,11,8.44,17,8.32-6,3.3-16.92,10.42-32.36,0C20.3,34.94,31.17,36,37.23,35.28c-9.43,4.81-21.19,11.5-35.34,1,4.45,8,16.34,7.94,21.45,7.09C8.62,49.47,1.63,41,0,34.08c4.07,2.27,14.14,8.35,26.12,2.86-5.91-2-10.12-5.21-11.64-12.32C21.36,29.2,31.73,31.55,40,28.21c-4-1.3-8.27-3.62-9.73-11.58,9.12,5.57,16.85,5.5,24.74,2.6A14.39,14.39,0,0,1,45,7.67c7.15,5.11,11.71,6.76,22.9,3.68A10.29,10.29,0,0,1,60.79,0c2.5,2.71,7.57,6.81,19.93,5.88a73.54,73.54,0,0,1,15.62.76c-7.26-.13-7,0-14.32,1.38S64.7,7,61.5,1.8C62.88,8,68.68,10.34,75.82,11c-6.25,2.51-18.67,9.11-29.36-1.2C50,16,57.73,18.51,62.88,18"/><polygon class="cls-1" points="144.52 26.1 142.52 32.44 145.76 29.18 145.79 29.18 146.82 33.07 142.31 33.07 141.02 37.2 143.52 37.2 144.12 35.2 147.4 35.2 147.97 37.2 150.53 37.2 147.01 26.1 144.52 26.1"/><polygon class="cls-1" points="104.28 26.1 102.27 32.44 105.52 29.18 105.53 29.18 106.57 33.07 102.07 33.07 100.77 37.2 103.28 37.2 103.87 35.2 107.16 35.2 107.73 37.2 110.28 37.2 106.77 26.1 104.28 26.1"/><polygon class="cls-1" points="71.31 26.1 71.31 28.59 74.39 28.59 74.39 37.2 77 37.2 77 28.59 80.02 28.59 80.02 26.1 71.31 26.1"/><polygon class="cls-1" points="117.56 26.1 117.58 32.52 114.18 26.1 111.39 26.1 111.39 37.2 113.93 37.2 113.93 30.28 113.98 30.28 117.58 37.14 120.1 37.14 120.1 26.1 117.56 26.1"/><path class="cls-1" d="M99.36,29.21a2.79,2.79,0,0,0-1.07-2.38,3.75,3.75,0,0,0-2.35-.73H91V37.2h2.6V28.42h2a1.33,1.33,0,0,1,.91.29,1.1,1.1,0,0,1,.39.9c0,.87-1.6,1.8-2.76,2.43a4.18,4.18,0,0,1,2.45,1.81,5.11,5.11,0,0,1,.28,1.55,11.67,11.67,0,0,0,.29,1.77h2.51a8.49,8.49,0,0,1-.4-2.5c-.11-1.54-.58-2.41-1.43-2.6h0A2.36,2.36,0,0,0,99,31a3.66,3.66,0,0,0,.38-1.68"/><path class="cls-1" d="M139.9,37h-1.52l-.13-1.16a2.78,2.78,0,0,1-2.6,1.4,4,4,0,0,1-3.29-1.62,6.52,6.52,0,0,1,0-7.81,4,4,0,0,1,3.29-1.61,4,4,0,0,1,2.68.91,4,4,0,0,1,1.49,2.87h-2.36a1.48,1.48,0,0,0-.58-1.06,1.81,1.81,0,0,0-1.21-.39,1.75,1.75,0,0,0-1.63,1,4.37,4.37,0,0,0-.48,2.17,4.32,4.32,0,0,0,.54,2.2,1.75,1.75,0,0,0,1.62,1,2.19,2.19,0,0,0,1.42-.45,1.78,1.78,0,0,0,.67-1.16h-1.66V31.14H140Z"/><path class="cls-1" d="M129.93,37h-1.52l-.15-1.16a2.73,2.73,0,0,1-2.52,1.4,4,4,0,0,1-3.3-1.62,6.52,6.52,0,0,1,0-7.81,4,4,0,0,1,3.3-1.61,3.95,3.95,0,0,1,4.1,3.78h-2.37a1.47,1.47,0,0,0-.57-1.06,1.8,1.8,0,0,0-1.21-.39,1.76,1.76,0,0,0-1.63,1,4.17,4.17,0,0,0-.48,2.17,4.32,4.32,0,0,0,.48,2.2,1.79,1.79,0,0,0,1.63,1,2.16,2.16,0,0,0,1.41-.45,1.62,1.62,0,0,0,.67-1.16h-1.65V31.14h3.81Z"/><path class="cls-1" d="M89.83,32.55a5.17,5.17,0,0,1-1,3.54,5.2,5.2,0,0,1-6.63,0,5.22,5.22,0,0,1-1-3.54V26.17h2.61v6.51a2.63,2.63,0,0,0,.4,1.59,2,2,0,0,0,2.71,0,2.68,2.68,0,0,0,.39-1.63V26.13h2.6Z"/><path class="cls-1" d="M80.42,47.48H79.21a2,2,0,0,1-.35,0,.84.84,0,0,1-.34-.17,2.85,2.85,0,0,1-.41-.44l-1.86-2.61a4.17,4.17,0,0,0,1.41-.89.73.73,0,0,0,.15-.51.84.84,0,0,0-.29-.7,1.28,1.28,0,0,0-.84-.25,1.75,1.75,0,0,0-.56,0v4.66a1.5,1.5,0,0,0,.08.47.87.87,0,0,0,.35.36H74.47a.44.44,0,0,0,.34-.25,1,1,0,0,0,.13-.5V42.09a3.69,3.69,0,0,0,0-.47.92.92,0,0,0-.09-.23.37.37,0,0,0-.15-.13.72.72,0,0,0-.19-.11h2.42a3.06,3.06,0,0,1,1.59.37,1.33,1.33,0,0,1,.6,1.2,1.35,1.35,0,0,1-.15.62,1.46,1.46,0,0,1-.34.52,2.25,2.25,0,0,1-.52.4,2.13,2.13,0,0,1-.49.21s.23.3.53.72.58.74.82,1a8.51,8.51,0,0,0,.71.76,3,3,0,0,0,.73.53"/><path class="cls-1" d="M88.32,46l-.56,1.47H83.32a1.6,1.6,0,0,0,.33-.4,1.58,1.58,0,0,0,.09-.42V42.27a2.09,2.09,0,0,0,0-.61.7.7,0,0,0-.34-.43h3.31a3.82,3.82,0,0,0,.68-.06v1.39a1,1,0,0,0-.56-.31,4.18,4.18,0,0,0-.93-.08H85v1.44h1.45a.57.57,0,0,0,.26,0v1.31c-.13-.2-.46-.29-1-.29H85v1.95l.49.08H86a3.69,3.69,0,0,0,.47,0,2.9,2.9,0,0,0,1.86-.6"/><path class="cls-1" d="M105.45,44.26a3.37,3.37,0,0,1-.18,1.09,3.57,3.57,0,0,1-.57,1,2.78,2.78,0,0,1-2.27,1.08,3.65,3.65,0,0,1-1.77-.4A2.77,2.77,0,0,1,99.52,46a3.21,3.21,0,0,1-.41-1.58,3.66,3.66,0,0,1,.19-1.08,3.49,3.49,0,0,1,.54-1.05,2.85,2.85,0,0,1,1-.81,3.24,3.24,0,0,1,1.44-.3,3.46,3.46,0,0,1,1.61.37A2.85,2.85,0,0,1,105,42.61a3.09,3.09,0,0,1,.41,1.65m-1.3.12a2.35,2.35,0,0,0-.14-.79,2.21,2.21,0,0,0-.38-.73,1.8,1.8,0,0,0-.61-.52,1.65,1.65,0,0,0-.78-.2,1.26,1.26,0,0,0-.61.16,1.77,1.77,0,0,0-.56.45,2,2,0,0,0-.39.71,2.35,2.35,0,0,0-.16.87,2.12,2.12,0,0,0,.16.83,1.83,1.83,0,0,0,.43.67,2.07,2.07,0,0,0,.61.44,1.75,1.75,0,0,0,.71.16,1.57,1.57,0,0,0,.71-.16,1.44,1.44,0,0,0,.54-.44,2.08,2.08,0,0,0,.36-.65,2.71,2.71,0,0,0,.11-.8"/><path class="cls-1" d="M131.67,46.07l-.39,1.1-.5.13-.38.09-.4.06a1.15,1.15,0,0,1-.37,0,4.57,4.57,0,0,1-1.89-.39,3.35,3.35,0,0,1-1.3-1.12,3,3,0,0,1-.52-1.68,4.2,4.2,0,0,1,.3-1.56,2.35,2.35,0,0,1,1-1.14,4.52,4.52,0,0,1,2.14-.43,7.21,7.21,0,0,1,.93,0,6.47,6.47,0,0,1,.88.15v1.08a3.55,3.55,0,0,0-1.86-.49A2,2,0,0,0,127.48,43a2.55,2.55,0,0,0-.24,1.09,2.48,2.48,0,0,0,1.47,2.27,2,2,0,0,0,1,.21,2.74,2.74,0,0,0,.7-.08,5.16,5.16,0,0,0,.67-.2c.24-.09.47-.19.7-.3"/><path class="cls-1" d="M114.22,47.48h-1.53V46.7l-.21.23a1.2,1.2,0,0,1-.29.26,2.41,2.41,0,0,1-.5.21,3.51,3.51,0,0,1-.91.08,3,3,0,0,1-1-.19,1.87,1.87,0,0,1-.67-.51,2.1,2.1,0,0,1-.37-.69,3.23,3.23,0,0,1-.1-.76v-3.4a1.16,1.16,0,0,0-.08-.45.93.93,0,0,0-.26-.33h1.84a.78.78,0,0,0-.21.33,1.17,1.17,0,0,0-.09.45v3a1.88,1.88,0,0,0,.19.93,1.33,1.33,0,0,0,.51.49,1.23,1.23,0,0,0,.62.14,2,2,0,0,0,.84-.15,1.22,1.22,0,0,0,.71-1.12V42.22a1.76,1.76,0,0,0-.1-.68,1,1,0,0,0-.3-.39h1.86a1.17,1.17,0,0,0-.26.46,2.08,2.08,0,0,0,0,.61V46.4c0,.29.12,1,.39,1.08"/><path class="cls-1" d="M123.06,47.48h-1.2a2,2,0,0,1-.35,0,.88.88,0,0,1-.35-.17,1.76,1.76,0,0,1-.38-.39l-1.88-2.6a4.25,4.25,0,0,0,1.41-.9.87.87,0,0,0,.17-.51.89.89,0,0,0-.3-.7,1.31,1.31,0,0,0-.85-.25,2.62,2.62,0,0,0-.56,0v4.66a1.27,1.27,0,0,0,.09.47.74.74,0,0,0,.34.36h-2a.45.45,0,0,0,.34-.24,1.13,1.13,0,0,0,.12-.51V42.09a3.69,3.69,0,0,0,0-.47.92.92,0,0,0-.09-.23.37.37,0,0,0-.15-.13l-.22-.11h2.42a3,3,0,0,1,1.58.37,1.33,1.33,0,0,1,.6,1.2,1.5,1.5,0,0,1-.13.62,2.06,2.06,0,0,1-.35.52,2.76,2.76,0,0,1-.46.37,2.85,2.85,0,0,1-.51.2s.24.3.54.72.57.74.82,1a9,9,0,0,0,.7.76,3.17,3.17,0,0,0,.73.53"/><path class="cls-1" d="M139.51,46,139,47.48h-4.39a1.26,1.26,0,0,0,.33-.4,1.06,1.06,0,0,0,.09-.42V42.27a2.56,2.56,0,0,0-.06-.62.8.8,0,0,0-.36-.43h3.31a3.08,3.08,0,0,0,.68-.07v1.4a1,1,0,0,0-.56-.32,4.86,4.86,0,0,0-.93-.07h-.85V43.6h1.44a.61.61,0,0,0,.27,0v1.3c-.14-.19-.46-.28-1-.28h-.72v2l.49.08h1a3,3,0,0,0,1.86-.6"/><path class="cls-1" d="M96.16,45.57a1.47,1.47,0,0,1-.22.79,1.75,1.75,0,0,1-.6.61,3.25,3.25,0,0,1-.9.38,4.9,4.9,0,0,1-1.08.12h-.65l-.59-.09-.57-.12L91.21,46a4,4,0,0,0,.74.49,3.53,3.53,0,0,0,.69.24,3.23,3.23,0,0,0,.69.07,2.17,2.17,0,0,0,.72-.11,1.53,1.53,0,0,0,.56-.34.79.79,0,0,0,.22-.4c0-.41-.35-.77-1-1.09L93,44.5a6.14,6.14,0,0,1-.88-.46,1.72,1.72,0,0,1-.55-.49,1.2,1.2,0,0,1-.22-.69,1.35,1.35,0,0,1,.34-.94,2.05,2.05,0,0,1,.86-.55,3.55,3.55,0,0,1,1.12-.18,5.57,5.57,0,0,1,1,0,3.22,3.22,0,0,1,.91.24v1.1a3,3,0,0,0-1.86-.63,1.54,1.54,0,0,0-.7.14.61.61,0,0,0-.39.56.67.67,0,0,0,.18.45,2.07,2.07,0,0,0,.47.37l.9.43.65.27a3,3,0,0,1,.9.59,1.12,1.12,0,0,1,.4.86"/><path class="cls-1" d="M147.35,45.57a1.56,1.56,0,0,1-.21.79,1.78,1.78,0,0,1-.61.61,3.25,3.25,0,0,1-.9.38,4.9,4.9,0,0,1-1.08.12h-.65l-.59-.09-.57-.12L142.4,46a4.52,4.52,0,0,0,.74.49,3.34,3.34,0,0,0,1.38.31,2.17,2.17,0,0,0,.72-.11,1.53,1.53,0,0,0,.56-.34.67.67,0,0,0,.22-.4c0-.41-.35-.77-1-1.09l-.74-.32a5.86,5.86,0,0,1-.9-.46,1.83,1.83,0,0,1-.55-.49,1.2,1.2,0,0,1-.21-.69,1.4,1.4,0,0,1,.33-.94,2.05,2.05,0,0,1,.86-.55,3.34,3.34,0,0,1,1.13-.18,5.46,5.46,0,0,1,1,0,3.35,3.35,0,0,1,.93.24v1.1a4.08,4.08,0,0,0-.95-.49,3.21,3.21,0,0,0-.92-.14,1.58,1.58,0,0,0-.71.14.62.62,0,0,0-.39.56.67.67,0,0,0,.18.45,1.92,1.92,0,0,0,.48.37c.18.1.48.25.89.43l.65.27a3,3,0,0,1,.9.59,1.12,1.12,0,0,1,.4.86"/></g></g></svg>